<?xml version="1.0" standalone="no"?>
<!DOCTYPE svg PUBLIC "-//W3C//DTD SVG 20010904//EN"
 "http://www.w3.org/TR/2001/REC-SVG-20010904/DTD/svg10.dtd">
<svg version="1.0" xmlns="http://www.w3.org/2000/svg"
 width="1280.000000pt" height="1280.000000pt" viewBox="0 0 1280.000000 1280.000000"
 preserveAspectRatio="xMidYMid meet">
<metadata>
Created by potrace 1.15, written by Peter Selinger 2001-2017
</metadata>
<g transform="translate(0.000000,1280.000000) scale(0.100000,-0.100000)"
fill="#000000" stroke="none">
<path d="M6341 12775 c-42 -36 -49 -82 -61 -435 -6 -168 -15 -415 -20 -550
-26 -671 -83 -2198 -96 -2570 -4 -107 -11 -186 -15 -175 -4 11 -21 70 -38 132
-17 62 -76 238 -131 393 -124 343 -162 471 -191 637 -20 118 -21 149 -15 388
12 541 -33 706 -378 1362 -117 224 -130 321 -66 528 36 117 37 135 7 163 -89
84 -230 -73 -276 -306 -14 -68 -14 -248 0 -332 17 -106 47 -194 131 -384 166
-376 196 -535 182 -961 -21 -598 -9 -697 150 -1205 74 -236 118 -422 129 -542
3 -33 2 -58 -4 -58 -5 0 -9 4 -9 9 0 5 -194 431 -431 947 -592 1290 -719 1567
-933 2034 -196 427 -222 470 -281 470 -73 0 -118 -68 -98 -147 10 -36 110
-307 936 -2533 375 -1010 344 -922 320 -890 -67 92 -196 243 -357 420 -379
415 -468 549 -591 890 -151 419 -321 645 -740 990 -99 81 -205 174 -236 207
-93 97 -131 191 -148 366 -12 119 -26 147 -77 147 -45 0 -97 -48 -113 -105
-41 -145 -14 -320 81 -514 63 -128 114 -190 333 -406 304 -301 401 -458 560
-910 71 -204 117 -312 182 -430 96 -173 146 -241 385 -529 88 -105 187 -231
220 -280 57 -85 123 -205 116 -211 -2 -1 -610 562 -1353 1252 -742 690 -1370
1268 -1394 1284 -115 75 -219 -17 -148 -132 12 -20 560 -617 1217 -1325 1385
-1493 1295 -1395 1255 -1369 -70 46 -224 126 -381 200 -600 283 -735 368 -945
597 -188 205 -288 295 -433 391 -178 116 -352 191 -666 286 -113 34 -231 72
-264 83 -133 48 -234 140 -305 277 -55 106 -85 141 -121 141 -36 0 -76 -46
-84 -97 -22 -129 101 -356 266 -494 133 -111 210 -152 455 -244 391 -147 503
-232 976 -738 139 -148 290 -276 432 -364 50 -31 200 -114 334 -185 135 -71
288 -157 340 -193 107 -71 199 -145 182 -145 -7 0 -46 13 -89 29 -42 17 -194
73 -337 126 -143 53 -467 173 -720 267 -253 94 -530 196 -615 228 -367 136
-1368 508 -1515 562 -233 88 -257 94 -305 79 -70 -21 -91 -95 -43 -152 30 -35
42 -41 523 -262 453 -207 1020 -467 1280 -587 334 -153 936 -430 1270 -583
157 -71 290 -134 295 -140 7 -7 6 -8 -1 -4 -27 15 -278 38 -569 52 -585 28
-709 53 -1052 214 -256 120 -439 171 -690 192 -144 12 -284 6 -551 -22 -368
-38 -459 -20 -642 130 -108 87 -129 94 -171 52 -28 -28 -31 -37 -26 -72 22
-162 240 -331 532 -411 74 -20 104 -22 405 -23 332 -1 386 -6 544 -46 170 -43
264 -81 631 -252 306 -142 485 -184 966 -227 125 -11 266 -27 315 -35 93 -16
239 -52 264 -65 24 -13 -65 -18 -675 -40 -556 -20 -1334 -49 -1875 -70 -140
-5 -451 -16 -690 -25 -239 -8 -458 -20 -487 -26 -133 -27 -136 -169 -5 -197
26 -6 186 -16 357 -22 171 -6 420 -15 555 -20 1255 -49 2642 -100 2702 -100
34 0 59 -2 56 -5 -3 -3 -47 -16 -99 -30 -105 -27 -265 -81 -534 -179 -227 -84
-390 -130 -547 -157 -112 -20 -146 -21 -383 -15 -541 12 -706 -33 -1362 -378
-224 -117 -321 -130 -528 -66 -117 36 -135 37 -163 7 -84 -89 73 -230 306
-276 68 -14 248 -14 332 0 106 17 194 47 384 131 376 166 535 196 961 182 598
-21 697 -9 1205 150 236 74 422 118 543 129 31 3 57 3 57 -1 0 -4 -53 -30
-118 -59 -64 -29 -270 -122 -457 -209 -187 -86 -470 -216 -630 -289 -159 -73
-488 -224 -730 -335 -585 -269 -973 -447 -1240 -569 -233 -106 -285 -143 -285
-196 0 -47 27 -83 70 -96 48 -15 72 -9 305 79 148 55 1158 430 1515 562 153
57 1209 448 1510 560 206 77 200 75 170 53 -92 -67 -243 -196 -420 -357 -417
-380 -545 -465 -891 -591 -419 -152 -645 -321 -989 -740 -262 -319 -321 -359
-578 -385 -114 -11 -142 -26 -142 -76 0 -45 48 -97 105 -113 145 -41 320 -14
514 82 128 62 220 137 395 321 280 295 471 413 921 571 204 71 312 117 430
182 173 96 246 150 529 386 104 87 230 185 279 218 86 57 206 124 212 117 1
-2 -562 -610 -1252 -1353 -690 -742 -1268 -1370 -1284 -1394 -75 -115 17 -219
132 -148 20 12 617 560 1325 1217 1495 1387 1395 1295 1369 1255 -46 -71 -126
-224 -200 -381 -280 -594 -369 -736 -597 -945 -205 -188 -295 -288 -391 -433
-116 -178 -191 -352 -286 -666 -34 -113 -72 -231 -83 -264 -48 -133 -140 -234
-277 -305 -146 -76 -175 -121 -111 -174 108 -91 378 21 556 231 115 134 154
207 250 461 69 182 121 288 191 393 107 160 190 249 546 581 148 139 276 290
364 432 31 50 114 200 185 334 71 135 157 288 193 340 69 104 145 199 145 183
0 -6 -27 -84 -61 -174 -33 -89 -179 -482 -324 -873 -145 -390 -406 -1095 -580
-1565 -175 -470 -322 -872 -328 -893 -20 -79 25 -147 98 -147 59 0 85 43 279
465 101 220 257 562 348 760 91 198 351 765 578 1260 227 495 417 905 423 910
7 7 8 6 4 -1 -15 -27 -38 -278 -52 -569 -28 -585 -53 -709 -214 -1052 -120
-256 -171 -439 -192 -690 -12 -144 -6 -284 22 -551 38 -368 20 -459 -130 -642
-87 -108 -94 -129 -52 -171 28 -28 37 -31 72 -26 162 22 331 240 411 532 20
74 22 104 23 405 1 332 6 385 46 545 42 167 79 259 252 630 142 306 184 485
227 966 11 125 27 266 35 315 16 93 52 239 65 264 11 19 18 -59 25 -265 9
-263 65 -1769 95 -2555 5 -135 14 -382 20 -550 6 -168 15 -328 21 -357 27
-136 171 -136 198 0 6 29 15 189 21 357 6 168 15 415 20 550 26 671 83 2198
96 2570 4 107 11 186 15 175 4 -11 21 -70 38 -132 17 -62 76 -238 131 -393
124 -343 162 -471 191 -637 20 -118 21 -149 15 -388 -12 -541 33 -706 378
-1362 117 -224 130 -321 66 -528 -36 -117 -37 -135 -7 -163 89 -84 230 73 276
306 14 68 14 248 0 332 -17 106 -47 194 -131 384 -166 376 -196 535 -182 961
21 598 9 697 -150 1205 -74 236 -118 422 -129 543 -3 32 -2 57 4 57 5 0 9 -4
9 -9 0 -5 194 -431 431 -947 592 -1290 719 -1567 933 -2034 196 -427 222 -470
281 -470 73 0 118 68 98 147 -10 36 -110 307 -936 2533 -375 1010 -344 922
-320 890 67 -92 196 -243 357 -420 379 -415 468 -549 591 -890 151 -419 321
-645 740 -990 99 -81 205 -174 236 -207 93 -97 131 -191 148 -366 12 -119 26
-147 77 -147 45 0 97 48 113 105 41 145 14 320 -81 514 -63 128 -114 190 -333
406 -304 301 -401 458 -560 910 -71 204 -117 312 -182 430 -96 173 -146 241
-385 529 -88 105 -187 231 -220 280 -57 85 -123 205 -116 211 2 1 611 -562
1353 -1252 743 -690 1370 -1268 1394 -1284 115 -75 219 17 148 132 -12 20
-560 617 -1217 1325 -1385 1493 -1295 1395 -1255 1369 70 -46 224 -126 381
-200 600 -283 735 -368 945 -597 188 -205 288 -295 433 -391 178 -116 352
-191 666 -286 113 -34 231 -72 264 -83 133 -48 234 -140 305 -277 55 -106 85
-141 121 -141 36 0 76 46 84 97 22 129 -101 356 -266 494 -133 111 -210 152
-455 244 -391 147 -503 232 -976 738 -139 148 -290 276 -432 364 -49 31 -200
114 -334 185 -135 71 -288 157 -340 193 -107 71 -199 145 -182 145 7 0 46 -13
89 -29 42 -17 194 -73 337 -126 143 -53 467 -173 720 -267 253 -94 530 -196
615 -228 367 -136 1368 -508 1515 -562 233 -88 257 -94 305 -79 70 21 91 95
43 152 -30 35 -42 41 -523 262 -453 207 -1020 467 -1280 587 -334 153 -936
430 -1270 583 -157 71 -289 134 -295 140 -7 7 -6 8 1 4 27 -15 278 -38 569
-52 585 -28 709 -53 1052 -214 256 -120 439 -171 690 -192 144 -12 284 -6 551
22 368 38 459 20 642 -130 108 -87 129 -94 171 -52 28 28 31 37 26 72 -22 162
-240 331 -532 411 -74 20 -104 22 -405 23 -332 1 -386 6 -544 46 -170 43 -264
81 -631 252 -306 142 -485 184 -966 227 -125 11 -266 27 -315 35 -93 16 -239
52 -264 65 -24 13 65 18 675 40 556 20 1334 49 1875 70 140 5 451 16 690 25
239 8 458 20 487 26 133 27 136 169 5 197 -26 6 -186 16 -357 22 -170 6 -420
15 -555 20 -1255 49 -2642 100 -2702 100 -34 0 -59 2 -56 5 3 3 47 16 99 30
105 27 265 81 534 179 227 84 390 130 547 157 112 20 146 21 383 15 541 -12
706 33 1362 378 224 117 321 130 528 66 117 -36 135 -37 163 -7 84 89 -73 230
-306 276 -68 14 -248 14 -332 0 -106 -17 -194 -47 -384 -131 -376 -166 -535
-196 -961 -182 -598 21 -697 9 -1205 -150 -236 -74 -422 -118 -542 -129 -32
-3 -58 -3 -58 1 0 4 53 30 118 59 64 29 270 122 457 209 187 86 471 216 630
289 160 73 488 224 730 335 585 269 973 447 1240 569 233 106 285 143 285 196
0 47 -27 83 -70 96 -48 15 -72 9 -305 -79 -148 -55 -1158 -430 -1515 -562
-153 -57 -1209 -448 -1510 -560 -206 -77 -200 -75 -170 -53 92 67 243 196 420
357 417 380 545 465 891 591 419 152 645 321 989 740 262 319 321 359 578 385
114 11 142 26 142 76 0 45 -48 97 -105 113 -145 41 -320 14 -514 -82 -128 -62
-220 -137 -395 -321 -280 -295 -471 -413 -921 -571 -204 -71 -312 -117 -430
-182 -173 -96 -246 -150 -529 -386 -104 -87 -230 -185 -279 -218 -86 -57 -206
-124 -212 -117 -1 2 562 611 1252 1353 690 743 1268 1370 1284 1394 75 115
-17 219 -132 148 -20 -12 -617 -560 -1325 -1217 -1495 -1387 -1395 -1295
-1369 -1255 46 71 126 224 200 381 280 594 369 736 597 945 205 188 295 288
391 433 116 178 191 352 286 666 34 113 72 231 83 264 48 133 140 234 277 305
146 76 175 121 111 174 -108 91 -378 -21 -556 -231 -115 -134 -154 -207 -250
-461 -69 -182 -121 -288 -191 -393 -107 -160 -190 -249 -546 -581 -148 -139
-276 -290 -364 -432 -31 -49 -114 -200 -185 -334 -71 -135 -157 -288 -193
-340 -69 -104 -145 -199 -145 -183 0 6 27 84 61 174 33 89 179 483 324 873
145 391 406 1095 580 1565 175 470 322 872 328 893 20 79 -25 147 -98 147 -59
0 -85 -43 -279 -465 -101 -220 -257 -562 -348 -760 -91 -198 -351 -765 -578
-1260 -227 -495 -417 -904 -423 -910 -7 -7 -8 -6 -4 1 15 27 38 278 52 569 28
585 53 709 214 1052 120 256 171 439 192 690 12 144 6 284 -22 551 -38 368
-20 459 130 642 87 108 94 129 52 171 -28 28 -37 31 -72 26 -162 -22 -331
-240 -411 -532 -20 -74 -22 -104 -23 -405 -1 -332 -6 -385 -46 -545 -42 -167
-79 -259 -252 -630 -142 -306 -184 -485 -227 -966 -11 -125 -27 -266 -35 -315
-16 -93 -52 -239 -65 -264 -11 -19 -18 59 -25 265 -9 263 -65 1769 -95 2555
-5 135 -14 382 -20 550 -6 168 -15 328 -21 357 -12 61 -53 103 -99 103 -16 0
-42 -11 -59 -25z"/>
</g>
</svg>
