<?xml version="1.0" standalone="no"?>
<!DOCTYPE svg PUBLIC "-//W3C//DTD SVG 20010904//EN"
 "http://www.w3.org/TR/2001/REC-SVG-20010904/DTD/svg10.dtd">
<svg version="1.0" xmlns="http://www.w3.org/2000/svg"
 width="5333.000000pt" height="5333.000000pt" viewBox="0 0 5333.000000 5333.000000"
 preserveAspectRatio="xMidYMid meet">

<g transform="translate(0.000000,5333.000000) scale(0.100000,-0.100000)"
fill="#000000" stroke="none">
<path d="M26556 53306 c-84 -36 -160 -91 -200 -145 -116 -158 -146 -422 -191
-1676 -38 -1073 -88 -2419 -115 -3125 -71 -1847 -248 -6566 -335 -8950 -44
-1208 -56 -1463 -75 -1625 -6 -44 -10 -84 -10 -89 0 -40 -31 57 -120 369 -143
504 -340 1099 -680 2050 -350 978 -515 1503 -619 1967 -70 308 -130 666 -151
893 -13 142 -13 687 1 1280 11 505 1 1015 -26 1347 -96 1175 -399 2015 -1459
4041 -192 367 -295 581 -360 745 -208 528 -218 903 -39 1517 150 515 163 576
143 662 -14 65 -82 145 -162 188 -48 27 -61 30 -149 30 -92 0 -98 -2 -180 -42
-194 -96 -401 -356 -545 -683 -91 -207 -186 -529 -213 -720 -42 -297 -40 -911
5 -1240 34 -251 108 -543 208 -817 93 -256 159 -415 419 -1014 609 -1401 741
-2122 687 -3759 -27 -812 -30 -991 -30 -1460 -1 -279 4 -590 10 -691 48 -852
170 -1419 602 -2809 353 -1138 530 -1870 578 -2400 14 -154 7 -230 -21 -230
-11 0 -22 8 -25 18 -33 104 -528 1190 -2651 5817 -768 1672 -1794 3909 -2280
4970 -1092 2382 -1149 2505 -1345 2895 -292 584 -396 710 -585 710 -224 0
-389 -153 -423 -391 -17 -122 -5 -177 125 -539 230 -638 1744 -4729 4270
-11530 786 -2116 905 -2442 905 -2472 0 -6 -25 25 -56 68 -254 354 -768 956
-1660 1940 -1404 1550 -1779 2124 -2274 3484 -498 1370 -997 2176 -1915 3095
-339 340 -622 592 -1195 1069 -938 781 -1150 996 -1327 1351 -135 268 -195
508 -253 1005 -41 356 -69 475 -128 550 -45 56 -93 75 -192 75 -77 0 -93 -3
-155 -34 -94 -46 -215 -167 -268 -269 -136 -260 -167 -797 -72 -1261 110 -541
391 -1175 708 -1596 173 -230 315 -382 947 -1020 671 -677 877 -904 1151
-1267 257 -342 425 -616 633 -1037 214 -433 380 -846 691 -1726 312 -880 527
-1354 893 -1970 289 -485 493 -757 1317 -1755 811 -981 1027 -1272 1300 -1750
88 -153 195 -366 195 -387 0 -9 -5 -11 -14 -6 -34 20 -1762 1618 -5306 4908
-3586 3329 -5454 5052 -6020 5554 -259 229 -539 262 -716 86 -68 -68 -96 -141
-96 -250 1 -154 53 -263 207 -437 363 -409 1741 -1912 3300 -3598 618 -669
643 -696 3031 -3270 3472 -3743 3933 -4244 3920 -4258 -3 -2 -37 18 -78 45
-148 100 -432 258 -828 461 -248 127 -429 215 -1140 552 -402 191 -1193 584
-1424 707 -530 283 -886 502 -1201 740 -316 240 -538 447 -939 878 -854 919
-1271 1286 -1921 1692 -690 431 -1360 712 -2624 1099 -582 178 -1093 342
-1188 380 -499 201 -896 569 -1169 1082 -167 313 -238 426 -328 521 -76 79
-124 105 -196 105 -139 2 -285 -145 -346 -349 -29 -97 -25 -298 10 -449 102
-440 372 -918 763 -1350 127 -141 267 -270 457 -421 480 -384 776 -535 1841
-940 860 -327 1322 -566 1828 -948 487 -366 977 -840 2058 -1986 537 -570 910
-912 1384 -1269 411 -310 736 -502 1927 -1138 506 -270 890 -483 1138 -632
459 -274 1109 -762 1015 -762 -30 0 -218 65 -590 205 -209 79 -945 353 -1635
608 -690 256 -1633 606 -2095 777 -462 172 -1324 491 -1915 710 -591 219
-2144 795 -3450 1280 -1306 485 -2757 1024 -3225 1197 -467 173 -947 351
-1065 395 -622 231 -757 260 -938 203 -363 -114 -389 -523 -48 -749 159 -107
676 -351 2726 -1288 1251 -573 2997 -1373 4145 -1901 1733 -797 5538 -2544
5885 -2702 697 -317 1128 -524 1150 -550 11 -13 7 -13 -28 -1 -188 67 -1149
151 -2462 216 -1806 90 -2441 176 -3190 432 -299 102 -545 205 -1068 447
-1062 491 -1768 696 -2717 791 -679 67 -1166 54 -2365 -65 -750 -74 -1087 -93
-1370 -76 -427 27 -695 110 -1019 319 -112 71 -201 138 -404 300 -230 183
-368 275 -450 297 -62 17 -67 17 -118 0 -41 -14 -70 -35 -131 -95 -103 -101
-123 -146 -114 -250 46 -557 645 -1142 1574 -1539 263 -113 670 -241 872 -275
182 -30 391 -37 1420 -46 1486 -13 1622 -24 2229 -171 706 -172 1085 -319
2416 -934 845 -390 1154 -515 1615 -652 668 -197 1321 -302 2680 -428 1131
-105 1447 -152 2034 -300 267 -67 413 -114 408 -130 -4 -15 -42 -23 -166 -34
-325 -31 -592 -42 -4136 -171 -1621 -59 -3586 -133 -5215 -195 -643 -25 -1550
-58 -2015 -75 -2788 -100 -3166 -115 -3740 -156 -332 -24 -448 -60 -565 -178
-127 -127 -154 -279 -78 -430 50 -99 183 -195 318 -230 179 -45 673 -73 2440
-136 616 -22 1937 -72 2935 -110 4604 -177 8620 -325 9500 -350 212 -6 401
-13 420 -16 l35 -6 -25 -13 c-14 -7 -108 -36 -210 -65 -480 -135 -591 -168
-863 -257 -356 -116 -837 -285 -1467 -513 -1181 -429 -1867 -617 -2640 -726
-167 -23 -659 -29 -1350 -15 -1331 27 -1977 -38 -2776 -279 -631 -191 -1405
-539 -2677 -1204 -367 -192 -581 -295 -745 -360 -529 -208 -903 -218 -1517
-39 -515 150 -576 163 -662 143 -65 -14 -145 -82 -188 -162 -27 -48 -30 -61
-30 -149 0 -92 2 -98 42 -180 96 -194 356 -401 683 -545 207 -91 529 -186 720
-213 126 -18 365 -31 580 -31 782 0 1187 97 2160 520 941 409 1279 535 1750
654 407 104 750 151 1265 177 252 12 992 6 1380 -11 357 -17 1578 -24 1820
-11 864 46 1431 166 2835 603 850 264 1455 424 1935 512 359 65 680 94 688 61
3 -16 -196 -112 -863 -414 -344 -156 -888 -405 -1210 -553 -709 -328 -1984
-913 -2705 -1243 -678 -310 -3058 -1403 -4815 -2210 -751 -345 -1876 -861
-2500 -1147 -1692 -775 -1777 -816 -2010 -959 -141 -87 -260 -203 -285 -278
-23 -69 -16 -183 14 -263 26 -67 103 -157 165 -192 68 -40 170 -66 256 -66
144 0 289 45 1043 326 838 312 3635 1350 7787 2889 2230 827 4348 1612 4705
1745 744 277 924 342 938 337 5 -1 -29 -31 -76 -65 -125 -91 -405 -315 -632
-507 -346 -292 -665 -574 -1310 -1159 -747 -677 -1284 -1118 -1712 -1404 -513
-343 -923 -542 -1758 -852 -516 -192 -798 -311 -1135 -479 -937 -468 -1665
-1060 -2560 -2082 -149 -170 -225 -260 -607 -719 -614 -739 -906 -1014 -1258
-1185 -250 -122 -497 -179 -990 -230 -322 -34 -460 -70 -530 -139 -77 -77 -87
-207 -25 -334 44 -90 168 -212 268 -265 86 -46 255 -91 426 -113 182 -24 522
-15 717 19 371 65 708 179 1107 372 562 273 889 537 1654 1332 862 896 1407
1318 2243 1736 466 232 892 405 1760 712 758 269 1214 466 1695 735 636 355
994 615 2020 1470 591 492 1055 855 1316 1031 162 108 491 303 659 389 152 79
194 94 178 66 -19 -34 -1618 -1762 -4908 -5306 -3365 -3625 -5050 -5451 -5554
-6020 -229 -259 -262 -539 -86 -716 66 -66 141 -96 246 -96 141 -1 271 55 404
174 617 551 3072 2807 4770 4383 294 274 3410 3164 4280 3970 1511 1401 2102
1941 2112 1931 2 -2 -20 -41 -50 -87 -172 -264 -563 -1011 -830 -1584 -248
-534 -695 -1442 -875 -1780 -317 -595 -574 -1004 -848 -1345 -208 -261 -399
-461 -769 -804 -925 -860 -1296 -1280 -1702 -1931 -431 -690 -712 -1360 -1099
-2624 -178 -582 -342 -1093 -380 -1188 -51 -127 -137 -290 -209 -398 -224
-334 -501 -573 -935 -805 -374 -200 -535 -331 -571 -463 -23 -88 45 -201 172
-286 362 -242 1103 -31 1774 506 132 105 364 330 484 468 470 539 653 872
1031 1865 313 822 517 1245 827 1714 426 643 748 988 2177 2332 551 518 899
898 1254 1369 310 411 502 736 1138 1927 391 732 639 1166 816 1431 221 330
505 698 561 728 17 10 18 8 12 -23 -13 -59 -120 -354 -500 -1378 -1102 -2969
-1904 -5131 -2665 -7185 -467 -1259 -982 -2650 -1145 -3090 -492 -1326 -968
-2624 -1041 -2840 -44 -129 -57 -215 -44 -304 34 -238 199 -391 423 -391 185
0 291 125 566 670 201 397 354 726 1236 2655 251 550 721 1574 1042 2275 322
701 996 2171 1498 3265 1546 3372 2264 4924 2411 5217 38 76 60 98 39 39 -66
-187 -150 -1150 -215 -2461 -90 -1802 -177 -2443 -432 -3190 -102 -299 -205
-545 -447 -1068 -491 -1062 -696 -1768 -791 -2717 -67 -679 -54 -1166 65
-2365 74 -750 93 -1087 76 -1370 -27 -427 -110 -695 -319 -1019 -71 -112 -138
-201 -300 -404 -183 -230 -275 -368 -297 -450 -17 -62 -17 -67 0 -118 14 -41
35 -70 95 -131 101 -103 146 -123 250 -114 557 46 1142 645 1539 1574 113 263
241 670 275 872 30 182 37 391 46 1425 13 1473 24 1613 166 2205 176 731 335
1139 999 2565 669 1437 826 2078 1020 4165 76 820 128 1249 186 1535 77 383
211 893 239 910 8 5 22 -30 34 -85 20 -97 39 -460 71 -1350 59 -1641 200
-5446 335 -9025 38 -1017 86 -2289 105 -2825 63 -1752 87 -2168 136 -2327 46
-150 139 -266 256 -321 83 -38 193 -38 276 0 74 35 166 123 205 196 66 126 82
214 106 592 14 209 20 320 41 780 3 63 24 612 45 1220 22 608 60 1634 85 2280
107 2795 306 8136 350 9385 28 798 53 1172 75 1148 4 -4 54 -170 110 -368 143
-504 340 -1099 680 -2050 350 -978 515 -1503 619 -1967 70 -308 130 -666 151
-893 13 -143 13 -680 -1 -1281 -23 -1070 30 -1738 192 -2386 186 -747 524
-1531 1293 -3001 192 -367 295 -581 360 -745 209 -531 218 -911 35 -1533 -141
-480 -159 -560 -139 -646 14 -65 82 -145 162 -188 48 -27 61 -30 149 -30 92 0
98 2 180 42 194 96 401 356 545 683 91 207 186 529 213 720 18 126 31 365 31
580 0 782 -97 1187 -520 2160 -409 941 -535 1279 -654 1750 -104 407 -151 750
-177 1265 -12 252 -6 992 11 1380 17 357 24 1578 11 1820 -46 864 -166 1431
-603 2835 -264 850 -424 1455 -512 1935 -53 289 -82 555 -71 643 6 47 9 53 28
50 12 -2 23 -13 27 -28 20 -72 619 -1385 2700 -5920 678 -1477 1655 -3607
2172 -4735 1153 -2514 1203 -2623 1400 -3015 292 -584 396 -710 585 -710 224
0 389 153 423 391 17 122 5 177 -125 539 -228 634 -1769 4794 -4270 11530
-786 2116 -905 2442 -905 2472 0 6 25 -25 56 -68 254 -354 768 -956 1660
-1940 1404 -1550 1779 -2124 2274 -3484 498 -1370 997 -2176 1915 -3095 339
-340 622 -592 1195 -1069 938 -781 1150 -996 1327 -1351 135 -268 195 -508
253 -1005 41 -356 69 -475 128 -550 45 -56 93 -75 192 -75 77 0 93 3 155 34
93 45 215 167 268 269 136 256 167 796 72 1261 -110 541 -391 1175 -708 1596
-173 230 -315 382 -947 1020 -671 677 -877 904 -1151 1267 -257 342 -425 616
-633 1037 -214 433 -380 846 -691 1726 -312 880 -527 1354 -893 1970 -289 485
-493 757 -1317 1755 -811 981 -1027 1272 -1300 1750 -87 151 -195 366 -195
386 0 8 3 14 6 14 13 0 1870 -1716 4394 -4060 2031 -1886 2366 -2197 3185
-2955 2119 -1963 3691 -3407 3830 -3518 69 -55 174 -102 274 -122 146 -30 271
4 367 100 68 68 96 141 96 250 -1 154 -53 263 -207 437 -363 409 -1741 1912
-3300 3598 -616 666 -630 682 -3030 3270 -3484 3756 -3934 4244 -3921 4258 3
2 37 -18 78 -45 148 -100 432 -258 828 -461 248 -127 433 -217 1130 -548 398
-188 1202 -587 1432 -710 532 -284 887 -503 1203 -741 316 -240 538 -447 939
-878 854 -919 1271 -1286 1921 -1692 690 -431 1360 -712 2624 -1099 582 -178
1093 -342 1188 -380 499 -201 896 -569 1169 -1082 167 -313 238 -426 328 -521
76 -79 124 -105 196 -105 139 -2 285 145 346 349 29 97 25 298 -10 449 -102
440 -372 918 -763 1350 -127 141 -267 270 -457 421 -480 384 -776 535 -1841
940 -1237 470 -1746 794 -2710 1721 -220 211 -648 652 -1176 1213 -537 570
-910 912 -1384 1269 -414 312 -737 503 -1922 1136 -509 271 -893 484 -1143
634 -459 274 -1109 762 -1015 762 30 0 218 -65 590 -205 209 -79 945 -353
1635 -608 690 -256 1633 -606 2095 -777 462 -172 1324 -491 1915 -710 591
-219 1847 -685 2790 -1035 943 -350 2334 -866 3090 -1147 756 -280 1531 -568
1722 -639 774 -287 886 -314 1076 -254 363 114 389 523 48 749 -159 106 -690
357 -2716 1284 -1270 581 -3019 1382 -4155 1905 -1472 677 -5500 2526 -5885
2702 -471 215 -787 363 -981 461 -164 81 -220 118 -140 89 181 -64 1118 -147
2366 -210 1372 -69 1951 -121 2470 -221 601 -116 1010 -260 1883 -663 1062
-491 1768 -696 2717 -791 679 -67 1166 -54 2365 65 750 74 1087 93 1370 76
351 -22 574 -78 824 -206 178 -91 312 -183 599 -413 230 -183 368 -275 450
-297 62 -17 67 -17 118 0 41 14 70 35 131 95 103 101 123 146 114 250 -46 557
-645 1142 -1574 1539 -263 113 -670 241 -872 275 -182 30 -391 37 -1420 46
-1486 13 -1622 24 -2229 171 -706 172 -1085 319 -2416 934 -539 249 -720 329
-945 418 -906 358 -1624 501 -3300 657 -723 68 -1196 121 -1430 161 -401 70
-1071 242 -1062 274 4 15 42 23 166 34 327 31 588 42 4136 171 1475 54 3229
119 4825 180 721 28 1807 68 2415 90 2927 106 3150 115 3730 156 316 22 437
58 553 164 209 191 163 485 -99 622 -118 62 -202 77 -584 102 -366 25 -801 44
-1985 86 -616 22 -1586 58 -2155 80 -5014 194 -9344 354 -10280 380 -212 6
-400 13 -419 16 -65 10 -64 10 549 183 394 110 1009 319 1980 671 1181 429
1866 617 2640 726 166 23 666 29 1350 15 1328 -27 1977 38 2776 279 628 190
1413 542 2669 1200 470 246 669 339 885 413 459 157 818 155 1385 -10 515
-150 576 -163 662 -143 65 14 145 82 188 162 27 48 30 61 30 149 0 92 -2 98
-42 180 -96 194 -356 401 -683 545 -207 91 -529 186 -720 213 -297 42 -911 40
-1240 -5 -447 -60 -807 -181 -1685 -564 -729 -318 -1149 -471 -1600 -584 -611
-152 -1276 -200 -2305 -166 -812 27 -991 30 -1460 30 -279 1 -590 -4 -691 -10
-852 -48 -1419 -170 -2809 -602 -894 -278 -1530 -444 -2022 -528 -307 -52
-594 -74 -601 -45 -3 16 195 111 858 412 341 155 915 417 1275 583 360 166
1409 648 2330 1070 921 422 2760 1266 4085 1875 1326 609 2921 1341 3545 1627
1693 776 1775 814 2011 959 140 87 259 203 284 278 23 69 16 183 -14 263 -26
67 -103 157 -165 192 -68 40 -170 66 -256 66 -144 0 -289 -45 -1043 -326 -776
-289 -4162 -1545 -7212 -2676 -1573 -583 -3416 -1266 -4095 -1518 -2253 -836
-2117 -786 -2126 -777 -2 2 33 32 80 65 124 91 404 316 631 507 346 292 665
574 1310 1159 767 695 1288 1121 1740 1422 495 330 906 528 1730 834 516 192
798 311 1135 479 923 461 1640 1040 2519 2035 141 159 288 334 644 761 617
744 909 1019 1262 1190 254 124 458 171 990 230 341 38 460 70 530 139 77 77
87 207 25 334 -45 91 -168 213 -268 265 -238 125 -731 163 -1162 91 -347 -59
-714 -185 -1125 -389 -542 -269 -860 -526 -1612 -1307 -873 -906 -1410 -1322
-2248 -1741 -468 -234 -885 -402 -1775 -718 -752 -266 -1195 -458 -1680 -729
-634 -354 -994 -615 -2020 -1470 -591 -492 -1055 -855 -1316 -1031 -162 -108
-491 -303 -659 -389 -140 -73 -185 -91 -185 -74 0 13 1707 1860 4060 4394
1984 2137 2208 2378 2955 3185 1962 2119 3407 3691 3518 3830 55 69 102 174
122 274 30 146 -4 271 -100 367 -68 68 -141 96 -250 96 -154 -1 -263 -53 -437
-207 -296 -263 -1430 -1300 -2493 -2280 -1159 -1068 -1538 -1419 -4170 -3860
-3973 -3686 -4449 -4124 -4462 -4111 -2 2 20 41 50 87 171 263 557 1000 825
1574 259 556 699 1450 880 1790 379 712 676 1162 1028 1560 150 170 308 328
594 594 928 864 1291 1276 1697 1926 431 690 712 1360 1099 2624 178 582 342
1093 380 1188 208 516 566 895 1129 1196 408 218 559 341 590 485 24 113 -128
275 -318 339 -75 25 -95 27 -242 27 -131 1 -178 -3 -263 -22 -458 -102 -957
-394 -1381 -807 -218 -212 -468 -511 -628 -750 -205 -308 -365 -649 -633
-1355 -312 -821 -517 -1245 -826 -1712 -422 -637 -758 -999 -2114 -2274 -617
-580 -952 -943 -1318 -1429 -313 -415 -503 -737 -1136 -1922 -391 -734 -640
-1170 -818 -1436 -221 -330 -505 -698 -561 -728 -17 -10 -18 -8 -12 23 14 63
131 383 782 2138 1147 3091 2679 7224 3630 9790 435 1174 873 2371 939 2565
44 129 57 215 44 304 -34 238 -199 391 -423 391 -247 0 -361 -188 -1142 -1885
-111 -242 -408 -890 -660 -1440 -251 -550 -696 -1520 -987 -2155 -292 -635
-967 -2107 -1500 -3270 -1735 -3784 -2468 -5364 -2504 -5400 -13 -13 -13 -10
0 27 65 184 148 1113 211 2368 87 1726 156 2324 340 2975 113 398 238 715 544
1378 491 1062 696 1768 791 2717 67 679 54 1166 -65 2365 -74 750 -93 1087
-76 1370 22 351 78 574 206 824 91 178 183 312 413 599 183 230 275 368 297
450 17 62 17 67 0 118 -14 41 -35 70 -95 131 -101 103 -146 123 -250 114 -557
-46 -1142 -645 -1539 -1574 -113 -263 -241 -670 -275 -872 -30 -182 -37 -391
-46 -1425 -13 -1473 -24 -1613 -166 -2205 -178 -741 -320 -1105 -1029 -2630
-635 -1368 -798 -2038 -985 -4050 -68 -723 -121 -1196 -161 -1430 -69 -400
-242 -1069 -274 -1063 -24 5 -46 184 -65 538 -5 105 -21 507 -35 895 -58 1619
-220 5976 -340 9155 -30 798 -73 1947 -95 2555 -21 608 -42 1157 -45 1220 -21
460 -27 571 -41 780 -19 301 -29 383 -59 479 -43 137 -143 259 -252 311 -74
35 -172 37 -247 6z m4584 -2571 c-21 -89 -41 -280 -47 -450 -9 -275 10 -573
82 -1295 79 -790 99 -1108 99 -1570 0 -422 -18 -682 -75 -1105 -93 -687 -265
-1217 -706 -2174 -343 -744 -471 -1087 -598 -1605 -190 -777 -247 -1278 -330
-2921 -63 -1246 -128 -2017 -196 -2312 l-30 -132 28 -122 c25 -112 32 -129 79
-193 32 -44 78 -90 119 -120 60 -44 80 -52 188 -78 l120 -28 121 27 c107 24
129 33 196 79 97 66 171 161 251 324 153 311 882 1884 1703 3672 1767 3851
2867 6251 3301 7200 148 323 270 586 272 585 1 -2 -81 -228 -183 -503 -102
-274 -477 -1286 -834 -2249 -785 -2119 -1825 -4922 -2488 -6710 -809 -2179
-848 -2283 -912 -2464 -33 -96 -77 -242 -97 -325 l-36 -150 29 -120 c25 -108
33 -128 78 -192 35 -49 74 -87 125 -124 67 -48 86 -56 195 -82 l120 -29 115
27 c104 23 124 31 200 82 46 31 110 86 143 122 188 204 624 821 820 1160 207
355 313 550 768 1400 560 1045 749 1347 1150 1825 308 367 573 640 1155 1185
1276 1198 1610 1565 2101 2310 321 487 478 818 874 1845 272 704 445 1049 669
1333 84 106 301 362 307 362 2 0 -24 -42 -57 -92 -75 -117 -146 -254 -197
-383 -40 -101 -211 -633 -342 -1065 -391 -1288 -660 -1952 -1062 -2623 -370
-618 -757 -1062 -1633 -1873 -536 -497 -787 -779 -1132 -1274 -373 -535 -784
-1307 -1435 -2690 -365 -775 -713 -1444 -903 -1736 -45 -69 -56 -98 -79 -193
-14 -61 -26 -121 -26 -133 0 -12 12 -71 26 -132 23 -97 33 -120 77 -182 34
-47 74 -87 121 -121 62 -44 85 -54 182 -77 61 -14 119 -26 130 -26 11 0 71 13
135 28 105 26 122 33 194 87 176 129 357 295 4685 4310 3223 2990 4635 4294
4587 4237 -54 -66 -2488 -2695 -4047 -4372 -1871 -2013 -3948 -4256 -4480
-4838 -107 -118 -220 -249 -250 -291 -51 -72 -58 -88 -83 -198 l-27 -120 28
-120 c26 -108 34 -128 78 -188 30 -41 77 -87 121 -120 66 -48 84 -56 190 -81
65 -15 126 -27 135 -26 9 0 76 15 149 33 148 35 264 90 544 254 517 303 917
601 1885 1405 966 802 1225 991 1815 1322 518 291 950 477 1800 778 1382 488
2052 817 2795 1370 453 338 647 517 1515 1400 422 429 678 650 932 802 111 67
461 248 478 248 4 0 -44 -39 -107 -87 -219 -169 -552 -519 -953 -1003 -611
-737 -839 -994 -1205 -1360 -609 -608 -1086 -960 -1775 -1310 -346 -175 -672
-314 -1179 -500 -783 -288 -1237 -507 -1731 -835 -504 -335 -1037 -766 -1801
-1456 -94 -85 -305 -276 -470 -424 -590 -533 -1117 -981 -1446 -1231 -146
-111 -187 -148 -231 -207 -48 -66 -55 -83 -82 -194 l-29 -123 29 -122 c27
-112 34 -130 81 -193 32 -45 77 -90 120 -121 62 -44 82 -53 191 -79 l122 -29
123 29 c154 35 261 73 1113 390 600 223 2240 832 7120 2640 644 239 1746 648
2450 909 704 261 1281 474 1282 472 2 -1 -142 -69 -320 -151 -177 -81 -1458
-669 -2847 -1307 -1389 -638 -3256 -1495 -4148 -1905 -893 -409 -1913 -877
-2265 -1040 -353 -162 -939 -430 -1302 -595 -941 -428 -1011 -466 -1117 -610
-48 -66 -56 -84 -82 -192 l-29 -118 29 -126 c26 -116 32 -131 80 -196 32 -44
78 -90 119 -120 61 -44 81 -53 204 -83 129 -33 143 -34 261 -29 296 13 735 96
1455 278 357 89 671 180 1265 363 828 256 1203 359 1521 419 364 69 687 106
1114 127 284 14 1284 6 1870 -16 476 -17 1100 -19 1365 -5 485 27 783 73 1326
205 498 122 917 273 1692 612 726 316 1063 439 1327 482 124 20 308 36 520 45
l120 5 -151 -39 c-306 -79 -526 -179 -1510 -688 -992 -514 -1723 -831 -2320
-1007 -353 -104 -773 -166 -1319 -195 -249 -13 -979 -13 -1544 1 -713 16 -933
-2 -1545 -127 -736 -151 -1299 -318 -2306 -684 -1126 -409 -1614 -571 -2225
-740 -143 -40 -275 -78 -294 -86 -73 -30 -177 -116 -228 -188 -43 -60 -54 -87
-77 -178 -14 -59 -26 -119 -26 -133 0 -14 12 -74 26 -133 35 -138 90 -222 203
-303 70 -50 85 -56 209 -86 131 -31 142 -32 496 -43 1036 -31 5182 -184 9761
-360 996 -38 1972 -75 2170 -82 198 -7 342 -14 320 -16 -22 -1 -546 -20 -1165
-42 -619 -22 -1474 -54 -1900 -70 -1835 -71 -4456 -168 -6570 -245 -2334 -84
-2888 -108 -3135 -135 -49 -6 -157 -26 -240 -46 -146 -35 -152 -37 -224 -92
-44 -34 -94 -84 -123 -124 -43 -59 -52 -81 -79 -190 l-30 -122 30 -124 c27
-109 36 -131 79 -190 75 -103 173 -173 302 -216 255 -83 1001 -258 1292 -301
254 -38 755 -93 1323 -145 879 -80 1537 -166 1990 -260 387 -81 886 -248 1384
-465 85 -36 391 -176 680 -310 1413 -652 1746 -774 2721 -999 537 -123 674
-133 2053 -146 999 -9 1283 -17 1452 -41 43 -6 148 -33 234 -61 163 -52 424
-148 419 -154 -2 -1 -21 1 -43 6 -89 21 -280 41 -450 47 -275 9 -573 -10
-1295 -82 -790 -79 -1108 -99 -1570 -99 -422 0 -682 18 -1105 75 -687 93
-1217 265 -2174 706 -744 343 -1087 471 -1605 598 -777 190 -1278 247 -2921
330 -1246 63 -2017 128 -2312 196 l-132 30 -122 -28 c-112 -25 -129 -32 -193
-79 -44 -32 -90 -78 -120 -119 -44 -60 -52 -80 -78 -188 l-28 -120 27 -121
c23 -102 34 -131 72 -186 59 -88 74 -104 161 -165 115 -81 377 -208 1285 -623
253 -115 1266 -580 2250 -1032 985 -452 2116 -972 2515 -1155 399 -183 1011
-464 1360 -625 590 -271 3614 -1658 4048 -1855 105 -49 191 -90 189 -91 -1 -2
-324 117 -717 262 -393 146 -1527 567 -2520 936 -993 368 -2228 827 -2745
1018 -517 191 -1379 511 -1915 710 -536 199 -1558 578 -2270 842 -712 264
-1405 522 -1540 573 -287 109 -420 152 -587 190 l-121 28 -122 -28 c-107 -25
-129 -34 -191 -78 -62 -44 -108 -94 -163 -179 -10 -15 -31 -81 -46 -145 l-28
-118 29 -123 c26 -110 35 -130 81 -195 73 -103 97 -126 253 -252 273 -220 737
-540 1025 -707 347 -202 547 -312 1400 -768 1045 -560 1347 -749 1825 -1150
353 -296 640 -574 1120 -1085 1083 -1151 1587 -1624 2182 -2048 523 -372 949
-584 1863 -930 754 -285 1146 -471 1440 -683 101 -72 302 -236 400 -327 l74
-67 -112 74 c-132 87 -268 159 -407 214 -101 40 -634 211 -1065 342 -1286 391
-1952 660 -2620 1060 -315 189 -557 362 -837 600 -195 166 -718 686 -1040
1035 -520 563 -825 831 -1353 1187 -544 368 -1205 716 -2680 1414 -767 362
-1427 707 -1673 873 -64 43 -88 52 -195 77 l-121 28 -123 -29 c-110 -26 -130
-34 -193 -79 -47 -34 -87 -73 -121 -121 -44 -62 -53 -83 -78 -189 l-28 -120
27 -120 c27 -116 31 -125 95 -216 118 -165 245 -303 4435 -4820 2679 -2888
4169 -4501 4114 -4454 -97 83 -2076 1915 -4449 4119 -4072 3781 -4933 4575
-5059 4665 -72 51 -88 58 -198 83 l-120 27 -120 -28 c-108 -26 -128 -34 -188
-78 -41 -30 -87 -77 -120 -121 -48 -66 -56 -84 -81 -190 -15 -65 -27 -129 -26
-142 1 -13 18 -85 37 -159 29 -111 48 -160 109 -276 311 -595 584 -970 1591
-2186 748 -904 951 -1184 1277 -1765 293 -522 478 -951 783 -1816 494 -1399
802 -2025 1363 -2771 285 -379 492 -608 1112 -1233 938 -946 1018 -1043 1246
-1497 77 -153 103 -211 86 -193 -5 6 -44 57 -88 115 -155 207 -459 489 -1114
1035 -545 454 -784 664 -1075 946 -528 512 -873 918 -1141 1344 -313 498 -561
1022 -824 1745 -294 810 -525 1285 -874 1800 -355 522 -767 1029 -1471 1805
-885 976 -1324 1486 -1612 1870 -111 149 -147 189 -206 233 -74 54 -80 56
-232 92 l-91 21 -121 -29 c-108 -26 -128 -34 -188 -78 -41 -30 -87 -76 -119
-120 -48 -65 -54 -80 -80 -195 l-28 -125 35 -145 c52 -211 18 -117 962 -2659
1641 -4419 3440 -9271 3450 -9305 9 -32 -4 -4 -848 1835 -442 965 -1346 2934
-2007 4375 -1855 4042 -2461 5370 -2536 5558 -37 93 -115 189 -202 250 -68 47
-91 56 -192 80 -63 15 -126 27 -140 27 -14 0 -75 -13 -137 -29 -98 -25 -121
-35 -180 -79 -64 -47 -148 -146 -172 -202 -21 -50 -71 -289 -71 -341 0 -135
57 -518 125 -836 58 -271 218 -907 299 -1188 41 -143 140 -474 221 -735 256
-828 359 -1203 419 -1521 69 -366 106 -690 127 -1119 15 -298 6 -1257 -16
-1880 -18 -492 -16 -1297 5 -1525 34 -386 74 -639 161 -1008 145 -620 278
-995 664 -1877 298 -683 420 -1022 464 -1290 21 -127 36 -297 45 -515 l5 -120
-39 151 c-79 306 -175 518 -684 1501 -521 1008 -834 1729 -1011 2330 -106 359
-167 773 -196 1343 -9 163 -9 431 -3 975 11 893 9 1236 -6 1387 -26 275 -95
652 -196 1073 -139 586 -260 970 -634 2021 -208 582 -351 998 -478 1386 -98
299 -112 346 -227 751 -75 264 -76 268 -132 345 -39 53 -79 93 -127 128 -63
44 -84 53 -190 78 l-120 28 -120 -28 c-108 -25 -128 -33 -191 -78 -48 -34 -87
-73 -123 -124 -49 -69 -54 -82 -87 -220 -50 -216 -61 -373 -95 -1327 -29 -804
-118 -3224 -200 -5415 -64 -1690 -102 -2714 -175 -4610 -13 -355 -30 -807 -37
-1005 l-13 -360 -12 345 c-7 190 -47 1241 -88 2335 -133 3517 -260 6945 -325
8755 -30 848 -43 1108 -61 1305 -10 107 -71 400 -92 440 -31 61 -110 153 -171
198 -63 47 -82 55 -195 83 l-125 31 -105 -25 c-131 -30 -150 -38 -227 -95 -88
-65 -163 -176 -202 -297 -84 -265 -256 -1004 -297 -1282 -38 -252 -92 -744
-145 -1323 -102 -1114 -204 -1819 -331 -2280 -87 -319 -232 -722 -392 -1091
-36 -82 -176 -388 -310 -680 -642 -1391 -754 -1687 -955 -2529 -168 -700 -191
-960 -192 -2130 -1 -706 -15 -1355 -34 -1516 -12 -96 -28 -164 -67 -285 -53
-165 -149 -427 -155 -422 -1 2 1 21 6 43 21 89 41 280 47 450 9 275 -10 573
-82 1295 -79 789 -99 1107 -99 1570 0 420 17 680 75 1105 93 687 265 1217 706
2174 343 744 471 1087 598 1605 190 777 247 1281 330 2921 62 1240 128 2016
196 2312 l30 132 -28 122 c-25 112 -32 129 -79 193 -32 44 -78 90 -119 120
-60 44 -80 52 -188 78 l-120 28 -121 -27 c-107 -24 -129 -33 -196 -79 -101
-68 -174 -163 -257 -334 -243 -500 -786 -1675 -2533 -5485 -593 -1292 -1269
-2766 -1502 -3275 -234 -509 -606 -1322 -828 -1807 -222 -486 -405 -881 -407
-880 -1 2 97 271 218 598 121 326 602 1625 1069 2884 722 1949 2113 5699 2858
7705 274 738 333 906 372 1074 l32 140 -28 120 c-25 108 -33 128 -78 192 -35
49 -74 87 -125 124 -67 48 -86 56 -195 82 l-120 29 -115 -27 c-104 -23 -124
-31 -200 -82 -119 -80 -226 -204 -483 -556 -349 -480 -542 -805 -1093 -1835
-712 -1334 -884 -1614 -1305 -2116 -308 -367 -573 -640 -1155 -1185 -1276
-1198 -1610 -1565 -2101 -2310 -322 -488 -477 -816 -874 -1845 -271 -701 -446
-1051 -669 -1333 -84 -106 -301 -362 -307 -362 -2 0 24 42 57 93 75 116 146
253 197 382 43 108 164 486 317 985 376 1226 590 1793 900 2372 245 459 476
801 785 1165 157 184 687 719 975 983 534 490 805 787 1124 1235 416 582 804
1301 1503 2785 370 785 713 1444 903 1736 45 69 56 98 79 193 14 61 26 121 26
133 0 12 -12 71 -26 132 -23 97 -33 120 -77 182 -34 47 -74 87 -121 121 -62
44 -85 54 -182 77 -61 14 -119 26 -130 26 -11 0 -71 -13 -135 -28 -111 -27
-119 -31 -210 -99 -176 -132 -391 -329 -4324 -3978 -3368 -3124 -4976 -4611
-4945 -4570 34 45 1435 1559 3400 3675 2365 2547 3844 4143 4740 5115 724 785
694 746 734 926 l27 115 -29 121 c-26 108 -34 128 -78 188 -30 41 -77 87 -121
120 -66 48 -84 56 -190 81 -65 15 -128 27 -141 26 -12 -1 -77 -16 -145 -32
-139 -35 -240 -81 -482 -220 -542 -312 -948 -612 -1945 -1440 -966 -802 -1225
-991 -1815 -1322 -522 -293 -945 -476 -1816 -784 -952 -336 -1534 -587 -2054
-884 -286 -164 -700 -450 -990 -684 -295 -238 -520 -454 -1250 -1196 -422
-430 -679 -650 -932 -802 -111 -67 -461 -248 -478 -248 -4 0 44 39 107 87 218
169 556 523 948 997 91 110 248 298 349 418 759 904 1408 1518 2016 1906 501
319 1022 567 1780 845 481 177 762 295 1075 451 703 352 1374 852 2476 1847
94 85 303 274 465 420 595 538 1119 983 1451 1235 146 111 187 148 231 207 48
66 55 83 82 195 l29 122 -29 123 c-26 109 -35 129 -79 191 -31 43 -76 88 -121
120 -63 47 -81 54 -192 81 l-122 29 -123 -29 c-161 -37 -211 -54 -883 -305
-494 -184 -3274 -1215 -7350 -2725 -643 -239 -1746 -648 -2450 -909 -704 -261
-1281 -474 -1282 -472 -2 1 142 69 320 151 177 81 988 453 1802 827 1747 803
4613 2118 5110 2346 604 276 1918 880 2465 1132 289 133 822 377 1185 542 942
428 1011 466 1117 610 48 66 56 84 82 192 l29 118 -29 126 c-26 116 -32 131
-80 196 -32 44 -78 90 -119 120 -61 45 -80 53 -203 83 -155 38 -211 40 -412
18 -298 -33 -620 -98 -1195 -240 -444 -110 -725 -189 -1375 -390 -828 -256
-1203 -359 -1521 -419 -364 -69 -687 -106 -1114 -127 -284 -14 -1284 -6 -1870
16 -476 17 -1100 19 -1365 5 -482 -27 -787 -73 -1306 -200 -535 -131 -924
-272 -1742 -630 -694 -303 -1033 -425 -1302 -469 -127 -21 -297 -36 -515 -45
l-120 -5 151 39 c306 79 518 175 1501 684 1008 521 1729 834 2330 1011 352
104 773 166 1318 195 249 13 994 13 1550 -1 705 -17 928 2 1539 127 736 151
1300 319 2308 685 1102 400 1627 575 2183 728 320 88 351 99 436 160 113 81
168 165 203 303 14 59 26 119 26 133 0 14 -12 74 -26 133 -35 138 -90 222
-203 303 -70 50 -85 56 -209 86 -131 31 -142 32 -491 43 -990 29 -5194 184
-9126 336 -935 36 -2028 78 -2430 93 -401 16 -709 29 -684 30 176 5 2475 89
3439 126 2022 77 4422 166 6455 240 2049 74 2624 99 2865 126 52 6 159 26 238
45 135 32 146 37 216 88 47 36 92 81 125 126 47 64 55 83 81 193 l29 122 -29
122 c-26 110 -34 129 -81 193 -65 90 -175 173 -273 206 -230 79 -1026 265
-1318 309 -252 38 -744 92 -1323 145 -1114 102 -1819 204 -2280 331 -320 87
-722 232 -1094 394 -85 36 -391 176 -680 310 -1364 630 -1704 757 -2571 963
-317 76 -428 98 -599 122 -313 43 -714 60 -1481 60 -707 1 -1362 15 -1521 34
-96 12 -164 28 -285 67 -163 52 -427 149 -422 155 2 1 32 -3 68 -11 147 -30
271 -39 550 -39 296 0 443 8 865 50 634 61 885 85 1075 99 747 54 1244 42
1905 -46 683 -92 1217 -265 2174 -706 744 -343 1087 -471 1605 -598 777 -190
1281 -247 2921 -330 1240 -62 2016 -128 2312 -196 l132 -30 122 28 c112 25
129 32 193 79 44 32 90 78 120 119 44 60 52 80 78 188 l28 120 -27 121 c-23
102 -34 131 -72 186 -59 88 -74 104 -161 165 -118 83 -348 194 -1290 625 -250
114 -1260 578 -2245 1030 -984 452 -2116 972 -2515 1155 -399 183 -1011 464
-1360 625 -590 271 -3614 1658 -4048 1855 -105 49 -191 90 -189 91 1 2 322
-116 712 -261 391 -144 1525 -565 2520 -935 996 -370 2294 -851 2885 -1070
591 -219 1253 -464 1470 -545 217 -81 1178 -437 2135 -792 957 -354 1850 -687
1985 -738 288 -109 420 -152 587 -190 l121 -28 122 28 c107 25 129 34 191 78
62 44 108 94 163 179 10 15 31 81 46 145 l28 118 -29 123 c-26 110 -35 130
-81 195 -28 40 -65 87 -82 106 -49 53 -294 246 -496 391 -496 356 -784 527
-1809 1075 -1334 712 -1614 884 -2116 1305 -352 295 -636 570 -1116 1080
-1092 1161 -1590 1629 -2186 2053 -523 372 -952 586 -1863 930 -752 284 -1146
471 -1440 683 -101 72 -302 236 -400 327 l-74 67 112 -74 c132 -87 268 -159
407 -214 108 -43 486 -164 985 -317 1226 -376 1793 -590 2372 -900 459 -245
801 -476 1165 -785 195 -166 718 -686 1040 -1035 520 -563 825 -831 1353
-1187 544 -368 1205 -716 2680 -1414 767 -362 1427 -707 1673 -873 64 -43 88
-52 195 -77 l121 -28 123 29 c110 26 130 34 193 79 47 34 87 73 121 121 44 62
53 83 78 189 l28 120 -27 120 c-27 116 -31 125 -95 216 -118 165 -245 303
-4435 4820 -2702 2913 -4159 4490 -4120 4460 45 -34 1559 -1435 3675 -3400
2529 -2349 4113 -3816 5050 -4680 860 -794 810 -753 991 -794 l115 -27 121 29
c108 26 128 34 188 78 41 30 87 77 120 121 48 66 56 84 81 190 15 65 27 129
26 142 -1 13 -18 85 -37 159 -29 111 -48 160 -109 276 -311 595 -584 970
-1591 2186 -748 904 -951 1184 -1277 1765 -293 522 -478 951 -783 1816 -494
1399 -802 2025 -1363 2771 -285 379 -492 608 -1112 1233 -938 946 -1018 1043
-1246 1497 -77 153 -103 211 -86 193 5 -5 44 -57 88 -115 155 -207 459 -489
1114 -1035 545 -454 784 -664 1075 -946 528 -512 873 -918 1141 -1344 313
-498 561 -1022 824 -1745 294 -810 525 -1285 874 -1800 355 -523 769 -1030
1471 -1805 876 -966 1326 -1488 1612 -1870 111 -149 147 -189 206 -233 74 -54
80 -56 232 -92 l91 -21 121 29 c108 26 128 34 188 78 41 30 87 76 119 120 48
65 54 80 80 195 l28 125 -35 145 c-52 212 -8 90 -1027 2834 -793 2137 -2412
6500 -2999 8084 -215 580 -389 1056 -388 1057 1 1 247 -532 546 -1184 300
-653 1163 -2535 1919 -4182 2245 -4891 2853 -6224 2928 -6413 37 -93 115 -189
202 -250 68 -47 91 -56 192 -80 63 -15 126 -27 140 -27 14 0 75 13 137 29 98
25 121 35 180 79 64 47 148 146 172 202 6 14 25 86 42 160 29 124 31 144 25
245 -18 297 -103 735 -278 1430 -89 357 -180 671 -363 1265 -256 828 -359
1203 -419 1521 -69 364 -106 687 -127 1114 -14 284 -6 1284 16 1870 17 476 19
1100 5 1365 -20 364 -62 688 -125 980 -161 739 -293 1128 -710 2080 -296 678
-422 1026 -464 1285 -20 124 -36 308 -45 520 l-5 120 39 -151 c79 -306 175
-518 684 -1501 521 -1008 834 -1729 1011 -2330 106 -359 167 -773 196 -1343 9
-163 9 -431 3 -975 -11 -893 -9 -1236 6 -1387 26 -270 88 -614 186 -1029 143
-613 260 -987 644 -2065 356 -997 526 -1509 676 -2037 104 -367 104 -367 159
-443 37 -53 76 -91 127 -128 66 -47 85 -55 192 -80 l120 -28 120 28 c108 25
128 33 191 78 48 34 87 73 123 124 49 69 54 82 87 220 50 216 61 373 95 1327
50 1394 241 6530 340 9120 28 721 58 1526 68 1790 l17 480 13 -355 c7 -195 41
-1124 77 -2065 118 -3114 272 -7276 335 -9015 30 -848 42 -1108 61 -1305 10
-107 71 -399 92 -440 30 -60 113 -156 173 -200 61 -45 82 -53 193 -81 l125
-31 105 25 c131 30 150 38 227 95 88 65 163 176 202 297 84 265 256 1004 297
1282 38 254 93 755 145 1323 80 879 166 1537 260 1990 81 386 248 886 463
1381 36 82 176 388 310 680 650 1407 757 1693 966 2574 74 315 97 426 121 599
43 313 60 714 60 1486 1 706 15 1355 34 1516 12 96 28 164 67 285 53 165 149
427 155 422 1 -2 -1 -21 -6 -43z"/>
</g>
</svg>
